<?xml version="1.0" encoding="UTF-8"?>
<svg version="1.1" id="Capa_1" xmlns="http://www.w3.org/2000/svg" xmlns:xlink="http://www.w3.org/1999/xlink" x="0px" y="0px" viewBox="0 0 300 300" style="enable-background:new 0 0 300 300;" xml:space="preserve">
<title>contact</title>
<path d="M269.6,51.8H30.4c-11.1,0-20.1,9-20.1,20.1V228c0,11.1,9,20.1,20.1,20.1h239.2c11.1,0,20.1-9,20.1-20.1V71.9  C289.7,60.8,280.7,51.8,269.6,51.8z M258.4,103.1v93.7L211.5,150L258.4,103.1z M61.6,81.9h176.7L150,170.2L61.6,81.9z M108.5,171.2  l30.9,30.9c3,3,6.8,4.6,10.7,4.6s7.7-1.6,10.7-4.6l30.9-30.9l46.8,46.8H61.6L108.5,171.2z M88.5,150l-46.9,46.8v-93.7L88.5,150z"/>
</svg>